<svg id="Capa_1" enable-background="new 0 0 511.626 511.626" height="512" viewBox="0 0 511.626 511.626" width="512" xmlns="http://www.w3.org/2000/svg"><g><g><path d="m468.954 463.742h-426.281c-27.478 0-44.294-30.153-29.853-53.53l213.526-345.679c13.725-22.22 46.047-22.194 59.737.048l212.754 345.679c14.389 23.379-2.431 53.482-29.883 53.482z" fill="#a59ca6"/><path d="m484.953 387.701h-284.423c-27.478 0-44.294-30.153-29.853-53.53l140.92-228.135-25.514-41.454c-13.689-22.242-46.011-22.268-59.737-.048l-213.527 345.678c-14.44 23.377 2.376 53.53 29.853 53.53h426.281c27.452 0 44.272-30.103 29.883-53.482z" fill="#8f8390"/><path d="m42.673 431.742c-.589 0-1.815 0-2.699-1.585-.884-1.584-.239-2.627.07-3.128l213.527-345.679c.271-.438.905-1.466 2.628-1.466 1.727 0 2.361 1.03 2.632 1.47l212.754 345.679c.309.501.95 1.544.066 3.126s-2.109 1.583-2.697 1.583z" fill="#fbe88c"/><path d="m471.651 430.159c.884-1.583.243-2.625-.066-3.126l-24.208-39.332h-246.847c-27.478 0-44.294-30.153-29.853-53.53l122.098-197.665-33.944-55.151c-.271-.44-.905-1.47-2.632-1.47-1.723 0-2.357 1.027-2.628 1.466l-213.527 345.678c-.309.501-.954 1.544-.07 3.128.884 1.585 2.11 1.585 2.699 1.585h426.281c.588 0 1.813 0 2.697-1.583z" fill="#fbe372"/><path d="m236.181 349.699 16.057-46.274h-59.817c-2.127 0-3.606-2.116-2.875-4.113l38.594-105.491c.423-1.155 1.522-1.923 2.751-1.923h54.144c2.016 0 3.43 1.989 2.767 3.894l-25.213 72.371c-.104.298.117.61.433.61h31.384c1.039 0 1.762 1.031 1.409 2.008l-28.532 78.92h43.985c2.508 0 3.655 3.126 1.743 4.748l-55.527 47.114c-2.729 2.315-6.733 2.315-9.461 0l-55.527-47.114c-1.912-1.622-.765-4.748 1.743-4.748h41.942z" fill="#a59ca6"/></g><g><path d="m505.224 406.329-38-61.742c-2.171-3.528-6.79-4.628-10.318-2.456-3.527 2.171-4.627 6.791-2.456 10.318l38 61.742c5.313 8.633 5.533 19.07.589 27.919s-13.948 14.132-24.085 14.132h-426.281c-10.146 0-19.154-5.29-24.095-14.151-4.942-8.861-4.709-19.305.623-27.938l213.526-345.679c5.064-8.198 13.837-13.09 23.472-13.09h.023c9.644.008 18.419 4.916 23.474 13.128l157.974 256.673c2.171 3.528 6.789 4.627 10.318 2.456 3.527-2.171 4.627-6.791 2.456-10.318l-157.974-256.673c-7.803-12.678-21.349-20.254-36.236-20.266-.013 0-.023 0-.036 0-14.872 0-28.416 7.553-36.233 20.208l-213.526 345.678c-8.231 13.325-8.591 29.447-.962 43.126 7.628 13.679 21.534 21.845 37.196 21.845h426.281c15.648 0 29.547-8.155 37.18-21.815 7.632-13.66 7.292-29.771-.91-43.097z"/><path d="m135.822 431.742c0 4.142 3.358 7.5 7.5 7.5h325.632c5.406 0 8.112-3.398 9.245-5.424 1.132-2.027 2.608-6.114-.226-10.716l-212.757-345.682c-2.699-4.382-6.808-5.036-9.017-5.036-2.207 0-6.312.653-9.009 5.024l-213.532 345.687c-2.837 4.603-1.364 8.689-.234 10.715 1.131 2.029 3.837 5.432 9.249 5.432h68.686c4.142 0 7.5-3.358 7.5-7.5s-3.358-7.5-7.5-7.5h-60.778l205.612-332.865 204.868 332.865h-317.739c-4.143 0-7.5 3.358-7.5 7.5z"/><path d="m207.493 250.257c-3.888-1.423-8.197.576-9.62 4.467l-15.37 42.011c-1.184 3.236-.712 6.854 1.262 9.679s5.21 4.511 8.656 4.511h49.276l-10.852 31.274h-36.606c-4.323 0-8.08 2.623-9.569 6.681-1.49 4.059-.323 8.489 2.975 11.286l55.527 47.113c2.776 2.356 6.179 3.535 9.583 3.534 3.403 0 6.807-1.178 9.583-3.534l55.527-47.113c3.297-2.797 4.464-7.228 2.974-11.286s-5.246-6.681-9.569-6.681h-33.3l24.898-68.868c.997-2.755.588-5.832-1.095-8.23s-4.437-3.831-7.366-3.831h-21.475l21.952-63.012c1.109-3.183.606-6.725-1.347-9.473s-5.131-4.389-8.502-4.389h-54.144c-4.359 0-8.295 2.75-9.795 6.846l-12.193 33.329c-1.423 3.89.577 8.197 4.467 9.62 3.887 1.42 8.197-.577 9.62-4.467l11.096-30.329h44.518l-23.094 66.292c-.849 2.43-.465 5.133 1.024 7.231 1.49 2.098 3.916 3.351 6.489 3.351h22.833l-25.625 70.878c-.831 2.298-.49 4.857.914 6.858 1.404 2 3.695 3.191 6.139 3.191h30.892l-45.422 38.539-45.422-38.539h28.849c3.194 0 6.039-2.023 7.085-5.042l16.057-46.274c.796-2.293.433-4.829-.975-6.807-1.407-1.978-3.684-3.152-6.111-3.152h-53.466l13.188-36.048c1.424-3.886-.576-8.193-4.466-9.616z"/></g></g></svg>